Normalized EMG Linear Envelopes
nRows=109
nColumns=4

endheader
time	 med_gas_r	  soleus_r	 tib_ant_r	
3.86492	  0.010548	  0.014125	  0.004447	
3.93649	  0.011271	  0.014210	  0.004951	
4.00806	  0.011397	  0.013849	  0.005960	
4.07964	  0.011313	  0.013199	  0.006999	
4.15121	  0.011151	  0.012640	  0.007692	
4.22278	  0.011131	  0.012393	  0.007167	
4.29435	  0.011049	  0.012486	  0.005990	
4.36593	  0.011299	  0.012860	  0.005405	
4.4375	  0.011538	  0.013386	  0.005844	
4.50907	  0.011289	  0.013867	  0.007011	
4.58065	  0.010878	  0.013940	  0.007624	
4.65222	  0.010534	  0.013557	  0.006757	
4.72379	  0.010308	  0.012653	  0.005542	
4.79536	  0.010328	  0.011184	  0.004790	
4.86694	  0.010363	  0.009807	  0.004496	
4.93851	  0.010737	  0.010574	  0.004584	
5.01008	  0.013333	  0.017568	  0.005851	
5.08165	  0.020613	  0.035886	  0.009356	
5.15323	  0.033634	  0.067200	  0.015103	
5.2248	  0.047725	  0.099671	  0.020432	
5.29637	  0.055813	  0.116433	  0.022718	
5.36794	  0.057625	  0.120889	  0.022768	
5.43952	  0.055207	  0.120021	  0.022345	
5.51109	  0.047077	  0.109313	  0.022480	
5.58266	  0.040378	  0.095763	  0.024122	
5.65423	  0.044369	  0.101366	  0.027906	
5.72581	  0.061913	  0.133870	  0.033005	
5.79738	  0.091713	  0.183082	  0.038175	
5.86895	  0.131316	  0.228654	  0.044721	
5.94052	  0.175928	  0.263680	  0.052266	
6.0121	  0.221355	  0.289059	  0.058944	
6.08367	  0.258201	  0.301791	  0.062079	
6.15524	  0.287852	  0.307197	  0.062022	
6.22681	  0.319869	  0.314754	  0.062711	
6.29839	  0.361066	  0.328730	  0.064295	
6.36996	  0.412266	  0.344921	  0.065550	
6.44153	  0.458908	  0.359151	  0.067682	
6.5131	  0.511551	  0.369516	  0.070744	
6.58468	  0.566338	  0.383377	  0.074972	
6.65625	  0.600806	  0.407074	  0.078758	
6.72782	  0.627524	  0.442793	  0.079886	
6.7994	  0.660542	  0.487697	  0.077738	
6.87097	  0.690446	  0.519641	  0.077505	
6.94254	  0.711864	  0.530265	  0.081711	
7.01411	  0.720709	  0.522896	  0.085713	
7.08569	  0.719439	  0.511763	  0.087176	
7.15726	  0.710826	  0.509115	  0.086369	
7.22883	  0.698682	  0.501399	  0.083656	
7.3004	  0.692853	  0.488193	  0.080577	
7.37198	  0.700362	  0.481542	  0.080589	
7.44355	  0.703340	  0.484339	  0.081284	
7.51512	  0.709255	  0.484138	  0.080436	
7.58669	  0.706597	  0.486473	  0.076881	
7.65827	  0.704176	  0.501205	  0.072723	
7.72984	  0.693408	  0.511113	  0.070310	
7.80141	  0.665923	  0.507387	  0.069977	
7.87298	  0.638890	  0.490495	  0.069830	
7.94456	  0.617879	  0.487013	  0.069954	
8.01613	  0.602165	  0.508819	  0.069185	
8.0877	  0.595870	  0.544798	  0.066909	
8.15927	  0.602537	  0.569057	  0.064357	
8.23085	  0.611967	  0.559593	  0.062760	
8.30242	  0.603792	  0.534690	  0.062971	
8.37399	  0.592495	  0.528271	  0.066375	
8.44556	  0.589476	  0.532551	  0.070431	
8.51714	  0.577482	  0.536259	  0.071346	
8.58871	  0.561547	  0.538677	  0.070414	
8.66028	  0.536148	  0.534209	  0.068023	
8.73185	  0.501036	  0.511387	  0.064715	
8.80343	  0.465492	  0.466634	  0.060085	
8.875	  0.441696	  0.432902	  0.056096	
8.94657	  0.431774	  0.423119	  0.053196	
9.01815	  0.422330	  0.423154	  0.051664	
9.08972	  0.414277	  0.419855	  0.051251	
9.16129	  0.414599	  0.407548	  0.050918	
9.23286	  0.418142	  0.390291	  0.050010	
9.30444	  0.423335	  0.378850	  0.049365	
9.37601	  0.424385	  0.381041	  0.050507	
9.44758	  0.433896	  0.395944	  0.053154	
9.51915	  0.458574	  0.410819	  0.056851	
9.59073	  0.490895	  0.419021	  0.061510	
9.6623	  0.514326	  0.430614	  0.065523	
9.73387	  0.504081	  0.432218	  0.064688	
9.80544	  0.476143	  0.426724	  0.060402	
9.87702	  0.463682	  0.416694	  0.056130	
9.94859	  0.470657	  0.398339	  0.054213	
10.0202	  0.474715	  0.378638	  0.054603	
10.0917	  0.463064	  0.359284	  0.054943	
10.1633	  0.443062	  0.349481	  0.053500	
10.2349	  0.415008	  0.361794	  0.050102	
10.3065	  0.386003	  0.387896	  0.046704	
10.378	  0.368689	  0.396538	  0.045022	
10.4496	  0.353516	  0.377493	  0.045384	
10.5212	  0.337493	  0.345927	  0.046218	
10.5927	  0.309440	  0.305744	  0.045295	
10.6643	  0.273772	  0.262355	  0.041720	
10.7359	  0.243076	  0.232914	  0.037939	
10.8075	  0.230265	  0.223292	  0.036864	
10.879	  0.233332	  0.222772	  0.037457	
10.9506	  0.238139	  0.217860	  0.037779	
11.0222	  0.233166	  0.205595	  0.037872	
11.0937	  0.217050	  0.186627	  0.037523	
11.1653	  0.191540	  0.161457	  0.036451	
11.2369	  0.161728	  0.137710	  0.032923	
11.3085	  0.126798	  0.123155	  0.028389	
11.38	  0.097928	  0.115274	  0.024599	
11.4516	  0.075482	  0.107224	  0.022193	
11.5232	  0.059283	  0.099599	  0.020268	
11.5948	  0.046238	  0.086349	  0.017573	
